<svg width="25" height="29" viewBox="0 0 25 29" fill="none" xmlns="http://www.w3.org/2000/svg">
<path d="M6.00586 11.7589C6.63442 11.7205 7.40931 11.7205 8.40586 11.7205H16.9392C17.9357 11.7205 18.7107 11.7205 19.3392 11.7589M6.00586 11.7589C5.22143 11.8068 4.66491 11.9145 4.1899 12.1565C3.43725 12.54 2.82533 13.1519 2.44183 13.9045C2.00586 14.7603 2.00586 15.8803 2.00586 18.1205V19.9872C2.00586 22.2275 2.00586 23.3475 2.44183 24.2032C2.82533 24.9559 3.43725 25.5677 4.1899 25.9512C5.04554 26.3872 6.16565 26.3872 8.40586 26.3872H16.9392C19.1795 26.3872 20.2995 26.3872 21.1552 25.9512C21.9079 25.5677 22.5197 24.9559 22.9032 24.2032C23.3392 23.3475 23.3392 22.2275 23.3392 19.9872V18.1205C23.3392 15.8803 23.3392 14.7603 22.9032 13.9045C22.5197 13.1519 21.9079 12.54 21.1552 12.1565C20.6801 11.9145 20.1236 11.8068 19.3392 11.7589M6.00586 11.7589V9.05387C6.00586 5.37198 8.99063 2.38721 12.6725 2.38721C16.3544 2.38721 19.3392 5.37198 19.3392 9.05387V11.7589" stroke="#878787" stroke-width="3" stroke-linecap="round" stroke-linejoin="round"/>
<circle cx="12.6726" cy="18.823" r="2.18384" fill="#878787"/>
</svg>
